<svg width="117" height="25" viewBox="0 0 117 25" fill="none" xmlns="http://www.w3.org/2000/svg">
<path d="M6.15613 1.93137C2.13553 1.93137 0.441321 3.85316 0.441321 6.58413C0.441321 8.45535 1.2505 9.77027 2.84356 10.4277C1.27578 11.0852 0.390747 12.4001 0.390747 14.3472C0.390747 17.0023 2.03439 18.9999 6.08027 18.9999H14.7283V16.0161H6.08027C4.33548 16.0161 3.50102 15.2069 3.50102 13.8667C3.50102 12.4759 4.38606 11.7932 6.10556 11.7932H14.5766V9.08752H6.18142C4.46192 9.08752 3.57688 8.45535 3.57688 7.06458C3.57688 5.74967 4.36077 4.91521 6.15613 4.91521H14.7031V1.93137H6.15613Z" fill="white"/>
<path d="M23.3096 5.64852C20.0982 5.64852 18.404 7.51974 18.404 11.3633V24.3607H21.0844V18.9999H27.0015C30.5417 18.9999 32.7669 16.8253 32.7669 12.3242C32.7669 7.82318 30.5417 5.64852 27.0015 5.64852H23.3096ZM21.0844 11.4898C21.0844 9.18867 21.9189 8.22777 24.0935 8.22777H26.7234C29.0497 8.22777 30.0612 9.44154 30.0612 12.3242C30.0612 15.2069 29.0497 16.3954 26.7234 16.3954H21.0844V11.4898Z" fill="white"/>
<path d="M35.9874 5.64852V18.9999H38.6678V5.64852H35.9874ZM35.9874 0.616455V3.72673H38.6931V0.616455H35.9874Z" fill="white"/>
<path d="M47.6651 5.64852C44.0997 5.64852 41.8745 7.82318 41.8745 12.3242C41.8745 16.8253 44.0997 18.9999 47.6651 18.9999H54.5432V16.3954H47.918C45.5916 16.3954 44.5802 15.2069 44.5802 12.3242C44.5802 9.44154 45.5916 8.22777 47.918 8.22777H54.5432V5.64852H47.6651Z" fill="white"/>
<path d="M57.6424 5.64852V13.7403C57.6424 16.8253 59.6147 18.9999 63.433 18.9999H65.9111C69.7294 18.9999 71.7018 16.8253 71.7018 13.7403V5.64852H69.072V13.6391C69.072 15.2069 67.9341 16.3954 65.81 16.3954H63.6353C61.5112 16.3954 60.348 15.2069 60.348 13.6391V5.64852H57.6424Z" fill="white"/>
<path d="M79.064 5.64852C76.4342 5.64852 75.448 6.86229 75.448 9.54269V18.9999H78.1284V9.94727C78.1284 8.78408 78.6594 8.22777 79.8479 8.22777H84.5512V5.64852H79.064Z" fill="white"/>
<path d="M87.1024 5.64852V13.7403C87.1024 16.8253 89.0748 18.9999 92.8931 18.9999H95.3712C99.1895 18.9999 101.162 16.8253 101.162 13.7403V5.64852H98.5321V13.6391C98.5321 15.2069 97.3941 16.3954 95.2701 16.3954H93.0954C90.9713 16.3954 89.8081 15.2069 89.8081 13.6391V5.64852H87.1024Z" fill="white"/>
<path d="M108.651 5.64852C105.54 5.64852 104.301 7.14044 104.301 9.54269C104.301 11.5909 105.212 13.4368 108.903 13.4368H112.064C113.404 13.4368 113.961 13.8667 113.961 14.9288C113.961 15.9655 113.455 16.3954 112.216 16.3954H104.453V18.9999H112.216C115.352 18.9999 116.591 17.331 116.591 14.9541C116.591 12.8805 115.655 11.1863 111.963 11.1863H108.828C107.336 11.1863 106.931 10.6806 106.931 9.74498C106.931 8.73351 107.437 8.22777 108.676 8.22777H116.06V5.64852H108.651Z" fill="white"/>
</svg>
